<svg version="1.1" viewBox="0.0 0.0 960.0 720.0" fill="none" stroke="none" stroke-linecap="square" stroke-miterlimit="10" xmlns:xlink="http://www.w3.org/1999/xlink" xmlns="http://www.w3.org/2000/svg"><clipPath id="p.0"><path d="m0 0l960.0 0l0 720.0l-960.0 0l0 -720.0z" clip-rule="nonzero"/></clipPath><g clip-path="url(#p.0)"><path fill="#000000" fill-opacity="0.0" d="m0 0l960.0 0l0 720.0l-960.0 0z" fill-rule="evenodd"/><path fill="#3c78d8" d="m277.0047 158.56693l0 0c0 -34.554756 28.012177 -62.566925 62.566956 -62.566925l0 0c16.59378 0 32.507904 6.5918503 44.241486 18.325432c11.733582 11.733574 18.32544 27.647713 18.32544 44.241493l0 0c0 34.554764 -28.012177 62.56694 -62.566925 62.56694l0 0c-34.55478 0 -62.566956 -28.012177 -62.566956 -62.56694z" fill-rule="evenodd"/><path stroke="#000000" stroke-width="1.0" stroke-linejoin="round" stroke-linecap="butt" d="m277.0047 158.56693l0 0c0 -34.554756 28.012177 -62.566925 62.566956 -62.566925l0 0c16.59378 0 32.507904 6.5918503 44.241486 18.325432c11.733582 11.733574 18.32544 27.647713 18.32544 44.241493l0 0c0 34.554764 -28.012177 62.56694 -62.566925 62.56694l0 0c-34.55478 0 -62.566956 -28.012177 -62.566956 -62.56694z" fill-rule="evenodd"/><path fill="#000000" d="m342.5951 170.28693l-2.8125 0l0 -17.921875q-1.015625 0.96875 -2.671875 1.9375q-1.640625 0.96875 -2.953125 1.453125l0 -2.71875q2.359375 -1.109375 4.125 -2.6875q1.765625 -1.578125 2.5 -3.0625l1.8125 0l0 23.0z" fill-rule="nonzero"/><path fill="#3c78d8" d="m471.62323 567.55347l0 0c0 -34.55475 28.012177 -62.566956 62.566956 -62.566956l0 0c16.59375 0 32.507874 6.591858 44.241455 18.32544c11.733582 11.733582 18.32544 27.647705 18.32544 44.241516l0 0c0 34.55475 -28.012146 62.566895 -62.566895 62.566895l0 0c-34.55478 0 -62.566956 -28.012146 -62.566956 -62.566895z" fill-rule="evenodd"/><path stroke="#000000" stroke-width="1.0" stroke-linejoin="round" stroke-linecap="butt" d="m471.62323 567.55347l0 0c0 -34.55475 28.012177 -62.566956 62.566956 -62.566956l0 0c16.59375 0 32.507874 6.591858 44.241455 18.32544c11.733582 11.733582 18.32544 27.647705 18.32544 44.241516l0 0c0 34.55475 -28.012146 62.566895 -62.566895 62.566895l0 0c-34.55478 0 -62.566956 -28.012146 -62.566956 -62.566895z" fill-rule="evenodd"/><path fill="#000000" d="m526.6355 573.22656l2.8125 -0.375q0.484375 2.390625 1.640625 3.453125q1.171875 1.046875 2.84375 1.046875q1.984375 0 3.34375 -1.375q1.375 -1.375 1.375 -3.40625q0 -1.9375 -1.265625 -3.1875q-1.265625 -1.265625 -3.21875 -1.265625q-0.796875 0 -1.984375 0.3125l0.3125 -2.46875q0.28125 0.03125 0.453125 0.03125q1.796875 0 3.234375 -0.9375q1.4375 -0.9375 1.4375 -2.890625q0 -1.546875 -1.046875 -2.5625q-1.046875 -1.015625 -2.703125 -1.015625q-1.640625 0 -2.734375 1.03125q-1.09375 1.03125 -1.40625 3.09375l-2.8125 -0.5q0.515625 -2.828125 2.34375 -4.375q1.828125 -1.5625 4.546875 -1.5625q1.875 0 3.453125 0.8125q1.578125 0.796875 2.40625 2.1875q0.84375 1.390625 0.84375 2.953125q0 1.484375 -0.796875 2.703125q-0.796875 1.21875 -2.359375 1.9375q2.03125 0.46875 3.15625 1.953125q1.125 1.46875 1.125 3.6875q0 3.0 -2.1875 5.09375q-2.1875 2.078125 -5.53125 2.078125q-3.015625 0 -5.015625 -1.796875q-1.984375 -1.796875 -2.265625 -4.65625z" fill-rule="nonzero"/><path fill="#3c78d8" d="m96.0 567.55347l0 0c0 -34.55475 28.012169 -62.566956 62.566925 -62.566956l0 0c16.59378 0 32.507935 6.591858 44.2415 18.32544c11.733582 11.733582 18.32544 27.647705 18.32544 44.241516l0 0c0 34.55475 -28.012177 62.566895 -62.56694 62.566895l0 0c-34.554756 0 -62.566925 -28.012146 -62.566925 -62.566895z" fill-rule="evenodd"/><path stroke="#000000" stroke-width="1.0" stroke-linejoin="round" stroke-linecap="butt" d="m96.0 567.55347l0 0c0 -34.55475 28.012169 -62.566956 62.566925 -62.566956l0 0c16.59378 0 32.507935 6.591858 44.2415 18.32544c11.733582 11.733582 18.32544 27.647705 18.32544 44.241516l0 0c0 34.55475 -28.012177 62.566895 -62.56694 62.566895l0 0c-34.554756 0 -62.566925 -28.012146 -62.566925 -62.566895z" fill-rule="evenodd"/><path fill="#000000" d="m165.77786 576.5703l0 2.703125l-15.140625 0q-0.03125 -1.015625 0.328125 -1.953125q0.578125 -1.546875 1.84375 -3.046875q1.28125 -1.5 3.6875 -3.46875q3.734375 -3.0625 5.046875 -4.84375q1.3125 -1.796875 1.3125 -3.390625q0 -1.671875 -1.203125 -2.8125q-1.1875 -1.15625 -3.109375 -1.15625q-2.03125 0 -3.25 1.21875q-1.21875 1.21875 -1.234375 3.375l-2.890625 -0.296875q0.296875 -3.234375 2.234375 -4.921875q1.9375 -1.703125 5.203125 -1.703125q3.296875 0 5.21875 1.828125q1.921875 1.828125 1.921875 4.53125q0 1.375 -0.5625 2.703125q-0.5625 1.328125 -1.875 2.796875q-1.296875 1.46875 -4.328125 4.03125q-2.53125 2.125 -3.25 2.890625q-0.71875 0.75 -1.1875 1.515625l11.234375 0z" fill-rule="nonzero"/><path fill="#000000" fill-opacity="0.0" d="m339.57166 221.13387l194.61414 283.84253" fill-rule="evenodd"/><path stroke="#741b47" stroke-width="4.0" stroke-linejoin="round" stroke-linecap="butt" d="m339.57166 221.13387l181.04248 264.04834" fill-rule="evenodd"/><path fill="#741b47" stroke="#741b47" stroke-width="4.0" stroke-linecap="butt" d="m515.16504 488.91833l15.71405 11.235199l-4.815857 -18.707458z" fill-rule="evenodd"/><path fill="#000000" fill-opacity="0.0" d="m339.57166 221.13387l-181.00789 283.84253" fill-rule="evenodd"/><path stroke="#741b47" stroke-width="4.0" stroke-linejoin="round" stroke-linecap="butt" d="m339.57166 221.13387l-168.10355 263.60693" fill-rule="evenodd"/><path fill="#741b47" stroke="#741b47" stroke-width="4.0" stroke-linecap="butt" d="m165.89748 481.1884l-4.18956 18.857574l15.330811 -11.752747z" fill-rule="evenodd"/><path fill="#000000" fill-opacity="0.0" d="m221.13387 567.55347l250.48817 0" fill-rule="evenodd"/><path stroke="#741b47" stroke-width="4.0" stroke-linejoin="round" stroke-linecap="butt" d="m234.84221 567.55347l212.77983 0" fill-rule="evenodd"/><path fill="#741b47" stroke="#741b47" stroke-width="4.0" stroke-linecap="butt" d="m234.84221 567.55347l4.498337 -4.498352l-12.359085 4.498352l12.359085 4.498291z" fill-rule="evenodd"/><path fill="#741b47" stroke="#741b47" stroke-width="4.0" stroke-linecap="butt" d="m447.62204 574.16034l18.152405 -6.6068726l-18.152405 -6.6069336z" fill-rule="evenodd"/><path fill="#000000" fill-opacity="0.0" d="m489.94867 523.31195l-287.1496 0" fill-rule="evenodd"/><path stroke="#ff0000" stroke-width="4.0" stroke-linejoin="round" stroke-linecap="butt" d="m476.24033 523.31195l-249.44128 0" fill-rule="evenodd"/><path fill="#ff0000" stroke="#ff0000" stroke-width="4.0" stroke-linecap="butt" d="m476.2403 523.31195l-4.4983215 4.498352l12.35907 -4.498352l-12.35907 -4.498291z" fill-rule="evenodd"/><path fill="#ff0000" stroke="#ff0000" stroke-width="4.0" stroke-linecap="butt" d="m226.79904 516.705l-18.15239 6.6069336l18.15239 6.6069336z" fill-rule="evenodd"/><path fill="#000000" fill-opacity="0.0" d="m645.79645 181.73883l132.18896 0" fill-rule="evenodd"/><path stroke="#ff0000" stroke-width="4.0" stroke-linejoin="round" stroke-linecap="butt" d="m669.79645 181.73883l84.189026 0" fill-rule="evenodd"/><path fill="#ff0000" stroke="#ff0000" stroke-width="4.0" stroke-linecap="butt" d="m669.79645 175.1319l-18.152344 6.6069336l18.152344 6.6069183z" fill-rule="evenodd"/><path fill="#ff0000" stroke="#ff0000" stroke-width="4.0" stroke-linecap="butt" d="m753.9855 188.34575l18.152405 -6.6069183l-18.152405 -6.6069336z" fill-rule="evenodd"/><path fill="#000000" fill-opacity="0.0" d="m645.79645 252.84557l132.18896 0" fill-rule="evenodd"/><path stroke="#741b47" stroke-width="4.0" stroke-linejoin="round" stroke-linecap="butt" d="m669.79645 252.84555l84.189026 0" fill-rule="evenodd"/><path fill="#741b47" stroke="#741b47" stroke-width="4.0" stroke-linecap="butt" d="m669.79645 246.23863l-18.152344 6.6069183l18.152344 6.6069336z" fill-rule="evenodd"/><path fill="#741b47" stroke="#741b47" stroke-width="4.0" stroke-linecap="butt" d="m753.9855 259.45248l18.152405 -6.6069336l-18.152405 -6.6069183z" fill-rule="evenodd"/><path fill="#000000" fill-opacity="0.0" d="m796.73785 142.41365l93.85828 0l0 78.708664l-93.85828 0z" fill-rule="evenodd"/><path fill="#000000" d="m808.316 183.41365l0 -23.859375l9.0 0q2.375 0 3.625 0.234375q1.75 0.28125 2.9375 1.109375q1.1875 0.828125 1.90625 2.3125q0.734375 1.46875 0.734375 3.25q0 3.046875 -1.9375 5.15625q-1.9375 2.09375 -7.0 2.09375l-6.109375 0l0 9.703125l-3.15625 0zm3.15625 -12.515625l6.15625 0q3.0625 0 4.34375 -1.140625q1.296875 -1.140625 1.296875 -3.203125q0 -1.5 -0.765625 -2.5625q-0.75 -1.0625 -1.984375 -1.40625q-0.796875 -0.21875 -2.953125 -0.21875l-6.09375 0l0 8.53125z" fill-rule="nonzero"/><path fill="#000000" fill-opacity="0.0" d="m796.73785 213.51941l93.85828 0l0 78.70865l-93.85828 0z" fill-rule="evenodd"/><path fill="#000000" d="m814.7222 255.79941l0 -21.875l-8.171875 0l0 -2.9375l19.65625 0l0 2.9375l-8.203125 0l0 21.875l-3.28125 0z" fill-rule="nonzero"/></g></svg>